<svg width="31" height="31" viewBox="0 0 31 31" fill="none" xmlns="http://www.w3.org/2000/svg">
<g id="Frame">
<g id="Group">
<path id="Vector" d="M15.0867 27.2994C15.203 27.3954 15.3492 27.448 15.5 27.448C15.6509 27.448 15.7971 27.3954 15.9134 27.2994C16.3396 26.9441 26.4792 18.5354 26.4792 12.5937C26.4792 6.54227 21.5515 1.61456 15.5 1.61456C9.44858 1.61456 4.52087 6.54227 4.52087 12.5937C4.52087 18.5354 14.6605 26.9441 15.0867 27.2994ZM15.5 2.90623C20.8411 2.90623 25.1875 7.25269 25.1875 12.5937C25.1875 17.3083 17.3923 24.3221 15.5 25.956C13.6077 24.3221 5.81254 17.3083 5.81254 12.5937C5.81254 7.25269 10.159 2.90623 15.5 2.90623Z" fill="white"/>
<path id="Vector_2" d="M22.6042 12.5937C22.6042 8.67352 19.4202 5.48956 15.5 5.48956C11.5798 5.48956 8.39587 8.67352 8.39587 12.5937C8.39587 16.5139 11.5798 19.6979 15.5 19.6979C19.4202 19.6979 22.6042 16.5139 22.6042 12.5937ZM9.68754 12.5937C9.68754 9.3904 12.2967 6.78123 15.5 6.78123C18.7034 6.78123 21.3125 9.3904 21.3125 12.5937C21.3125 15.7971 18.7034 18.4062 15.5 18.4062C12.2967 18.4062 9.68754 15.7971 9.68754 12.5937ZM10.3334 28.0937C9.97817 28.0937 9.68754 28.3844 9.68754 28.7396C9.68754 29.0948 9.97817 29.3854 10.3334 29.3854H20.6667C21.0219 29.3854 21.3125 29.0948 21.3125 28.7396C21.3125 28.3844 21.0219 28.0937 20.6667 28.0937H10.3334Z" fill="white"/>
</g>
</g>
</svg>
