<svg width="35" height="35" viewBox="0 0 35 35" fill="none" xmlns="http://www.w3.org/2000/svg">
<g id="Frame" clip-path="url(#clip0_10_2574)">
<g id="Group">
<path id="Vector" d="M14.8813 24.1125H7.73773C7.70563 24.1125 7.67485 24.0997 7.65215 24.077C7.62945 24.0543 7.61669 24.0235 7.61667 23.9914V13.5248C7.61667 13.3797 7.55905 13.2406 7.45649 13.1381C7.35394 13.0355 7.21484 12.9779 7.06979 12.9779C6.92475 12.9779 6.78566 13.0355 6.6831 13.1381C6.58054 13.2406 6.52292 13.3797 6.52292 13.5248V23.9915C6.52292 24.6613 7.06795 25.2063 7.73773 25.2063H14.8813C15.0263 25.2063 15.1654 25.1487 15.268 25.0461C15.3705 24.9436 15.4282 24.8045 15.4282 24.6594C15.4282 24.5144 15.3705 24.3753 15.268 24.2727C15.1654 24.1702 15.0263 24.1125 14.8813 24.1125V24.1125ZM26.5918 8.95036V0.546875C26.5918 0.401835 26.5342 0.262735 26.4316 0.160176C26.3291 0.057617 26.19 0 26.0449 0C25.8999 0 25.7608 0.057617 25.6582 0.160176C25.5557 0.262735 25.498 0.401835 25.498 0.546875V8.95036C25.498 9.97069 24.6679 10.8008 23.6476 10.8008H5.47347C4.45313 10.8008 3.62305 9.97069 3.62305 8.95036V0.546875C3.62305 0.401835 3.56543 0.262735 3.46287 0.160176C3.36031 0.057617 3.22121 0 3.07617 0C2.93113 0 2.79203 0.057617 2.68947 0.160176C2.58691 0.262735 2.5293 0.401835 2.5293 0.546875V8.95036C2.5293 10.5738 3.85007 11.8945 5.47347 11.8945H23.6476C25.271 11.8945 26.5918 10.5738 26.5918 8.95036ZM25.0164 26.25L18.2418 20.7787C18.1451 20.7007 18.0248 20.6579 17.9007 20.6573C17.7765 20.6567 17.6558 20.6984 17.5584 20.7756C17.5109 20.8133 16.3929 21.7208 16.3682 23.5972C16.3573 24.4323 16.9909 25.5337 18.3053 26.9645C18.9632 27.6808 19.6152 28.2845 19.9433 28.5791C19.8965 29.1513 19.8638 30.432 20.3346 31.6192C21.2138 33.8368 23.5324 34.907 23.6307 34.9514C23.7013 34.9835 23.7779 35.0001 23.8555 35.0001C23.9605 35.0001 24.0633 34.9699 24.1516 34.913C24.2399 34.8561 24.31 34.775 24.3534 34.6794C24.4783 34.4048 24.3569 34.0808 24.0825 33.9554C24.0624 33.9462 22.0649 33.016 21.3513 31.2161C20.8454 29.9401 21.0559 28.4514 21.0579 28.4374C21.0716 28.3459 21.0619 28.2524 21.0297 28.1656C20.9974 28.0789 20.9437 28.0018 20.8735 27.9415C20.8647 27.9339 19.9821 27.1731 19.1108 26.2246C17.6131 24.5942 17.4588 23.8541 17.4619 23.6117C17.4725 22.8115 17.7397 22.2675 17.9578 21.9553L24.3292 27.1009C24.4422 27.191 24.5862 27.2328 24.7298 27.2171C24.8734 27.2013 25.0049 27.1294 25.0957 27.017C25.1865 26.9046 25.2291 26.7609 25.2142 26.6172C25.1994 26.4735 25.1283 26.3415 25.0165 26.2501L25.0164 26.25Z" fill="white"/>
<path id="Vector_2" d="M32.4329 34.2533L28.0649 23.129C28.0315 23.0439 27.9772 22.9685 27.9071 22.9097L22.8422 18.6645V13.5247C22.8422 13.3797 22.7846 13.2406 22.682 13.138C22.5794 13.0355 22.4403 12.9778 22.2953 12.9778C22.1503 12.9778 22.0112 13.0355 21.9086 13.138C21.806 13.2406 21.7484 13.3797 21.7484 13.5247V21.9435C21.7484 22.0885 21.806 22.2276 21.9086 22.3302C22.0112 22.4327 22.1503 22.4903 22.2953 22.4903C22.4403 22.4903 22.5794 22.4327 22.682 22.3302C22.7846 22.2276 22.8422 22.0885 22.8422 21.9435V20.0915L27.0978 23.6584L31.4148 34.6529C31.4405 34.7205 31.4794 34.7823 31.5291 34.8348C31.5789 34.8872 31.6385 34.9293 31.7047 34.9586C31.7708 34.9878 31.8421 35.0037 31.9143 35.0052C31.9866 35.0067 32.0585 34.9939 32.1258 34.9675C32.1931 34.9411 32.2545 34.9015 32.3065 34.8512C32.3584 34.8009 32.3998 34.7408 32.4284 34.6744C32.4569 34.6079 32.472 34.5365 32.4728 34.4642C32.4735 34.3919 32.4599 34.3202 32.4328 34.2531L32.4329 34.2533ZM6.29497 9.68518H9.4272C9.99595 9.68518 10.4587 9.22246 10.4587 8.65364V7.43548C10.4587 6.86666 9.99595 6.40393 9.4272 6.40393H6.29497C5.72622 6.40393 5.26343 6.86666 5.26343 7.43548V8.65364C5.26343 9.22246 5.72622 9.68518 6.29497 9.68518ZM6.35718 7.49768H9.36499V8.59143H6.35718V7.49768ZM13.1165 9.68518H16.2487C16.8175 9.68518 17.2803 9.22246 17.2803 8.65364V7.43548C17.2803 6.86666 16.8175 6.40393 16.2487 6.40393H13.1165C12.5477 6.40393 12.0849 6.86666 12.0849 7.43548V8.65364C12.0849 9.22246 12.5477 9.68518 13.1165 9.68518ZM13.1787 7.49768H16.1865V8.59143H13.1787V7.49768ZM19.9379 9.68518H23.0702C23.6389 9.68518 24.1017 9.22246 24.1017 8.65364V7.43548C24.1017 6.86666 23.6389 6.40393 23.0702 6.40393H19.9379C19.3692 6.40393 18.9064 6.86666 18.9064 7.43548V8.65364C18.9064 9.22246 19.3692 9.68518 19.9379 9.68518ZM20.0001 7.49768H23.0079V8.59143H20.0001V7.49768ZM6.29497 5.18597H9.4272C9.99595 5.18597 10.4587 4.72318 10.4587 4.15443V2.93627C10.4587 2.36745 9.99595 1.90472 9.4272 1.90472H6.29497C5.72622 1.90472 5.26343 2.36745 5.26343 2.93627V4.15443C5.26343 4.72325 5.72622 5.18597 6.29497 5.18597ZM6.35718 2.99847H9.36499V4.09222H6.35718V2.99847ZM13.1165 5.18597H16.2487C16.8175 5.18597 17.2803 4.72318 17.2803 4.15443V2.93627C17.2803 2.36745 16.8175 1.90472 16.2487 1.90472H13.1165C12.5477 1.90472 12.0849 2.36745 12.0849 2.93627V4.15443C12.0849 4.72325 12.5477 5.18597 13.1165 5.18597ZM13.1787 2.99847H16.1865V4.09222H13.1787V2.99847ZM19.9379 5.18597H23.0702C23.6389 5.18597 24.1017 4.72318 24.1017 4.15443V2.93627C24.1017 2.36745 23.6389 1.90472 23.0702 1.90472H19.9379C19.3692 1.90472 18.9064 2.36745 18.9064 2.93627V4.15443C18.9064 4.72325 19.3692 5.18597 19.9379 5.18597ZM20.0001 2.99847H23.0079V4.09222H20.0001V2.99847ZM9.02196 13.5248V22.2748C9.02196 22.4198 9.07958 22.5589 9.18214 22.6615C9.2847 22.764 9.4238 22.8217 9.56884 22.8217C9.71388 22.8217 9.85298 22.764 9.95554 22.6615C10.0581 22.5589 10.1157 22.4198 10.1157 22.2748V13.5248C10.1157 13.3798 10.0581 13.2407 9.95554 13.1381C9.85298 13.0355 9.71388 12.9779 9.56884 12.9779C9.4238 12.9779 9.2847 13.0355 9.18214 13.1381C9.07958 13.2407 9.02196 13.3798 9.02196 13.5248ZM11.6845 13.5248V22.2748C11.6845 22.4198 11.7421 22.5589 11.8447 22.6615C11.9472 22.764 12.0863 22.8217 12.2314 22.8217C12.3764 22.8217 12.5155 22.764 12.6181 22.6615C12.7206 22.5589 12.7782 22.4198 12.7782 22.2748V13.5248C12.7782 13.3798 12.7206 13.2407 12.6181 13.1381C12.5155 13.0355 12.3764 12.9779 12.2314 12.9779C12.0863 12.9779 11.9472 13.0355 11.8447 13.1381C11.7421 13.2407 11.6845 13.3798 11.6845 13.5248ZM18.0576 17.4072C17.8798 17.4067 17.7056 17.458 17.5565 17.5549C17.4074 17.6518 17.2897 17.79 17.2179 17.9526L16.5987 19.156C16.534 19.2848 16.5227 19.4339 16.5674 19.571C16.612 19.708 16.709 19.8219 16.8371 19.8878C16.9653 19.9538 17.1143 19.9665 17.2517 19.9232C17.3892 19.8798 17.504 19.784 17.5712 19.6565L18.0575 18.7114L18.5074 19.5859C18.5398 19.6506 18.5846 19.7083 18.6394 19.7556C18.6942 19.8029 18.7578 19.8389 18.8266 19.8614C18.8954 19.8839 18.968 19.8925 19.0402 19.8868C19.1123 19.8811 19.1826 19.861 19.247 19.8279C19.3113 19.7948 19.3685 19.7492 19.4151 19.6939C19.4617 19.6385 19.4969 19.5744 19.5185 19.5054C19.5402 19.4363 19.548 19.3636 19.5413 19.2916C19.5347 19.2195 19.5138 19.1494 19.4799 19.0855L18.8972 17.9528C18.8253 17.7901 18.7077 17.6519 18.5585 17.555C18.4094 17.4582 18.2353 17.4068 18.0575 17.4073L18.0576 17.4072Z" fill="white"/>
<path id="Vector_3" d="M16.6467 17.2711C16.9456 16.772 17.4731 16.474 18.0577 16.4741C18.6422 16.4741 19.1696 16.7721 19.4684 17.2711C19.5299 17.3738 19.6233 17.4534 19.7343 17.4979C19.8454 17.5423 19.968 17.5491 20.0833 17.5173C20.1986 17.4854 20.3003 17.4166 20.3727 17.3214C20.4452 17.2262 20.4844 17.1099 20.4844 16.9902V14.1827C20.4844 13.5184 19.944 12.978 19.2797 12.978H16.8353C16.171 12.978 15.6306 13.5184 15.6306 14.1827V16.9902C15.6306 17.1099 15.6699 17.2262 15.7423 17.3214C15.8148 17.4166 15.9164 17.4854 16.0317 17.5173C16.147 17.5492 16.2696 17.5424 16.3807 17.4979C16.4917 17.4535 16.5852 17.3738 16.6466 17.2712L16.6467 17.2711ZM16.7244 14.1825C16.7244 14.1213 16.7743 14.0716 16.8354 14.0716H19.2798C19.341 14.0716 19.3907 14.1214 19.3907 14.1825V15.7218C18.992 15.5006 18.5364 15.3803 18.0579 15.3802H18.0577C17.5791 15.3802 17.1233 15.5006 16.7244 15.7218V14.1825V14.1825Z" fill="white"/>
</g>
</g>
<defs>
<clipPath id="clip0_10_2574">
<rect width="35" height="35" fill="white"/>
</clipPath>
</defs>
</svg>
