<svg width="33" height="33" viewBox="0 0 33 33" fill="none" xmlns="http://www.w3.org/2000/svg">
<g id="Frame" clip-path="url(#clip0_10_2563)">
<g id="Group">
<path id="Vector" d="M26.8556 19.9298C26.7844 19.9298 26.7138 19.9158 26.648 19.8885C26.5822 19.8612 26.5223 19.8213 26.472 19.7709C26.4216 19.7205 26.3816 19.6607 26.3543 19.5949C26.3271 19.529 26.313 19.4585 26.313 19.3872V19.1808C26.313 18.5467 25.4083 17.9247 24.4864 17.9247H22.2683C22.1971 17.9247 22.1266 17.9107 22.0608 17.8835C21.9949 17.8562 21.9351 17.8163 21.8848 17.7659C21.8344 17.7155 21.7945 17.6557 21.7673 17.5899C21.74 17.5241 21.726 17.4536 21.7261 17.3824C21.726 17.3111 21.74 17.2406 21.7673 17.1748C21.7945 17.1089 21.8344 17.0491 21.8848 16.9987C21.9352 16.9483 21.9949 16.9084 22.0607 16.8811C22.1266 16.8538 22.1971 16.8398 22.2683 16.8398H24.4864C25.8636 16.8398 27.3978 17.8014 27.3978 19.1808V19.3872C27.3978 19.4584 27.3839 19.529 27.3566 19.5948C27.3294 19.6606 27.2895 19.7204 27.2391 19.7708C27.1888 19.8212 27.129 19.8612 27.0632 19.8884C26.9974 19.9157 26.9269 19.9298 26.8556 19.9298ZM24.6863 13.3137C24.6714 13.3137 24.6565 13.3134 24.6416 13.3122C24.3427 13.2874 24.1205 13.0257 24.1453 12.7272L24.4165 9.41622C24.4144 7.54732 22.9692 5.99069 21.1928 5.99069H18.4148C16.6381 5.99069 15.193 7.54732 15.193 9.46056L15.4621 12.7272C15.4869 13.0257 15.2646 13.2874 14.9658 13.3122C14.669 13.3367 14.4058 13.1148 14.3809 12.8159L14.11 9.50498C14.1082 6.94922 16.0401 4.90582 18.4148 4.90582H21.1925C23.5676 4.90582 25.4995 6.94922 25.4995 9.46056L25.2264 12.8159C25.2152 12.9515 25.1535 13.078 25.0535 13.1702C24.9534 13.2624 24.8224 13.3137 24.6863 13.3137Z" fill="white"/>
<path id="Vector_2" d="M19.8038 18.4672C19.1607 18.4672 18.5126 18.3639 17.9294 18.168C17.8618 18.1453 17.7994 18.1095 17.7457 18.0627C17.692 18.0159 17.648 17.9589 17.6163 17.8951C17.5846 17.8313 17.5658 17.7619 17.5609 17.6908C17.5561 17.6197 17.5653 17.5484 17.588 17.4808C17.6836 17.1972 17.9909 17.045 18.2745 17.1391C18.7479 17.298 19.2765 17.3824 19.8036 17.3824C21.033 17.3824 22.1706 16.9373 22.7721 16.2207C23.5922 15.2429 24.1431 13.8473 24.1431 12.7486V10.5625C24.1431 10.2775 24.0847 10.0873 23.9699 9.99853C23.5612 9.68005 22.2622 10.01 21.1162 10.3008C20.0686 10.5668 18.9859 10.8422 18.0048 10.8422C16.7841 10.8422 15.9622 10.403 15.4701 10.101C15.4665 10.2223 15.4643 10.3735 15.4643 10.5625V12.7486C15.4643 13.5401 15.7591 14.525 16.2533 15.3828C16.2889 15.4445 16.3119 15.5127 16.3211 15.5833C16.3304 15.6539 16.3256 15.7256 16.3071 15.7944C16.2886 15.8632 16.2567 15.9276 16.2133 15.9841C16.1699 16.0405 16.1157 16.0879 16.054 16.1234C15.9923 16.1591 15.9242 16.1822 15.8535 16.1915C15.7829 16.2008 15.7111 16.196 15.6422 16.1775C15.5734 16.159 15.5089 16.1271 15.4524 16.0837C15.396 16.0402 15.3486 15.986 15.3131 15.9242C14.7196 14.8934 14.3792 13.7359 14.3792 12.7486V10.5625C14.3792 9.64001 14.4 9.10675 14.8292 8.86996C15.2119 8.65541 15.5742 8.88577 15.8932 9.08593C16.3173 9.35355 16.9582 9.75737 18.0048 9.75737C18.8501 9.75737 19.8663 9.49881 20.849 9.24922C22.4372 8.84604 23.8076 8.49713 24.636 9.14179C25.029 9.44724 25.228 9.92527 25.228 10.5625V12.7486C25.228 14.1044 24.5904 15.7404 23.6031 16.9178C22.7892 17.888 21.3686 18.4672 19.8038 18.4672ZM24.754 25.1862C24.6205 25.1861 24.4918 25.1367 24.3924 25.0476C24.2931 24.9585 24.2301 24.8358 24.2155 24.7032C24.201 24.5705 24.2358 24.4371 24.3135 24.3286C24.3911 24.22 24.5061 24.1439 24.6364 24.1148L31.0738 22.6734C31.3128 22.6311 31.4997 22.5122 31.6245 22.3344C31.6861 22.2471 31.7298 22.1484 31.753 22.0441C31.7763 21.9397 31.7786 21.8318 31.7598 21.7266C31.7349 21.5864 31.6738 21.4551 31.5826 21.3457C31.4915 21.2363 31.3733 21.1526 31.2399 21.1028C31.173 21.0781 31.1117 21.0405 31.0594 20.992C31.0071 20.9436 30.9649 20.8854 30.9352 20.8206C30.9054 20.7559 30.8888 20.6859 30.8861 20.6146C30.8834 20.5434 30.8948 20.4724 30.9197 20.4056C31.0239 20.1247 31.3371 19.9801 31.6165 20.0856C32.2478 20.3193 32.7125 20.8765 32.8285 21.5392C32.9163 22.0389 32.8039 22.5424 32.5125 22.9574C32.2214 23.3726 31.7856 23.6492 31.2858 23.737L24.8731 25.1732C24.8334 25.182 24.7934 25.1862 24.754 25.1862Z" fill="white"/>
<path id="Vector_3" d="M17.4151 28.2312H13.2942C13.2549 28.2312 13.2154 28.2272 13.1766 28.2185L8.29485 27.1336C8.00243 27.0685 7.81777 26.7785 7.88292 26.4865C7.94776 26.1941 8.23708 26.0116 8.52973 26.0743L13.3539 27.1463H17.4151C19.5319 27.1463 21.6084 26.4179 23.2619 25.0953C23.2765 25.0835 23.2917 25.073 23.3072 25.0631L31.3361 19.9003C31.362 19.8834 31.3893 19.8689 31.4178 19.8568C31.5163 19.8154 31.6056 19.7548 31.6805 19.6786C31.7555 19.6024 31.8146 19.5121 31.8545 19.413C31.9361 19.2112 31.934 18.9896 31.8492 18.79C31.6738 18.3766 31.1952 18.1832 30.7824 18.3585L22.7228 21.6813C22.6573 21.7083 22.5868 21.722 22.516 21.722H12.2095C12.1134 21.7221 12.0191 21.6967 11.9361 21.6483C11.8531 21.6 11.7845 21.5305 11.7372 21.4469C11.6899 21.3633 11.6657 21.2687 11.6669 21.1726C11.6682 21.0766 11.695 20.9827 11.7445 20.9004L13.3719 18.1882C13.4201 18.1079 13.4883 18.0415 13.5697 17.9954C13.6512 17.9492 13.7433 17.925 13.8369 17.925H16.0068C17.0159 17.925 17.8664 17.2328 18.1079 16.2976H12.387L4.98731 21.7245C4.7452 21.9017 4.40654 21.8483 4.22902 21.6077C4.14404 21.4916 4.10859 21.3465 4.13046 21.2043C4.15233 21.0621 4.22973 20.9343 4.34567 20.8491L11.8888 15.3177C11.9818 15.2494 12.0941 15.2127 12.2095 15.2128H18.7187C18.8626 15.2128 19.0006 15.2699 19.1023 15.3717C19.2041 15.4734 19.2612 15.6114 19.2612 15.7553C19.2612 17.55 17.8012 19.01 16.0065 19.01H14.1442L13.1676 20.6374H22.4087L30.364 17.3579C31.3227 16.9503 32.4392 17.4029 32.8481 18.3663C33.0461 18.8331 33.0507 19.349 32.8605 19.8196C32.6767 20.2746 32.3321 20.6337 31.8877 20.8361L23.9178 25.9607C22.0759 27.4248 19.7681 28.2312 17.4151 28.2312Z" fill="white"/>
<path id="Vector_4" d="M5.86912 31.3011C5.84003 31.3011 5.81099 31.2988 5.78227 31.2942C5.64029 31.271 5.51328 31.1925 5.42899 31.076L0.102689 23.6872C0.0608813 23.6295 0.0309107 23.564 0.0145047 23.4947C-0.00190135 23.4253 -0.0044184 23.3534 0.0070986 23.283C0.0302116 23.1411 0.108679 23.0141 0.225296 22.9298L3.74515 20.3924C3.98877 20.2191 4.32743 20.2726 4.50248 20.5153L9.82878 27.9035C9.87048 27.9613 9.90039 28.0267 9.9168 28.096C9.93321 28.1654 9.93579 28.2373 9.92441 28.3076C9.91302 28.3779 9.88789 28.4454 9.85044 28.506C9.813 28.5666 9.76397 28.6192 9.70618 28.6609L6.18633 31.199C6.09388 31.2654 5.98294 31.3011 5.86912 31.3011V31.3011ZM1.29992 23.4928L5.99204 30.0011L8.63195 28.0978L3.93975 21.5895L1.29992 23.4928Z" fill="white"/>
<path id="Vector_5" d="M7.32738 27.689C7.32738 28.2881 6.84164 28.7738 6.24251 28.7738C5.64338 28.7738 5.15771 28.2881 5.15771 27.6889C5.15771 27.0896 5.64346 26.6038 6.24259 26.6038C6.84172 26.6038 7.32738 27.0897 7.32738 27.689ZM19.8038 3.27858C19.7326 3.27864 19.662 3.26466 19.5962 3.23743C19.5303 3.2102 19.4705 3.17026 19.4201 3.11989C19.3697 3.06953 19.3298 3.00972 19.3025 2.94389C19.2753 2.87807 19.2612 2.80751 19.2613 2.73626V0.566364C19.2612 0.495117 19.2753 0.424563 19.3025 0.358737C19.3298 0.29291 19.3697 0.233103 19.4201 0.182735C19.4705 0.132366 19.5303 0.0924259 19.5962 0.0651971C19.662 0.0379683 19.7326 0.0239854 19.8038 0.0240481C19.8751 0.0239958 19.9456 0.0379876 20.0114 0.065223C20.0772 0.0924585 20.137 0.132403 20.1874 0.182772C20.2378 0.233141 20.2777 0.292947 20.305 0.358767C20.3322 0.424587 20.3462 0.495132 20.3461 0.566364V2.73626C20.3462 2.80749 20.3322 2.87803 20.3049 2.94384C20.2777 3.00965 20.2378 3.06944 20.1874 3.11981C20.137 3.17017 20.0772 3.2101 20.0114 3.23733C19.9456 3.26456 19.8751 3.27863 19.8038 3.27858ZM21.9735 3.27858C21.9023 3.27871 21.8317 3.26474 21.7659 3.23746C21.7001 3.21019 21.6404 3.17015 21.5902 3.11966C21.5398 3.06933 21.4998 3.00955 21.4725 2.94374C21.4452 2.87793 21.4311 2.80739 21.4311 2.73615C21.4311 2.6649 21.4452 2.59436 21.4725 2.52855C21.4998 2.46275 21.5398 2.40296 21.5902 2.35263L23.4884 0.453928C23.5907 0.354903 23.7278 0.300062 23.8702 0.301237C24.0126 0.302412 24.1488 0.359508 24.2495 0.460209C24.3501 0.560909 24.4072 0.697143 24.4083 0.839521C24.4094 0.981899 24.3545 1.11901 24.2554 1.22128L22.3571 3.11958C22.3068 3.17008 22.247 3.21013 22.1812 3.23741C22.1153 3.26468 22.0447 3.27865 21.9734 3.2785L21.9735 3.27858ZM17.6339 3.27858C17.5627 3.27871 17.4922 3.26474 17.4264 3.23746C17.3606 3.21019 17.3008 3.17015 17.2506 3.11966L15.6233 1.49224C15.5729 1.4419 15.5329 1.38213 15.5056 1.31633C15.4783 1.25053 15.4643 1.17999 15.4643 1.10876C15.4643 1.03753 15.4783 0.966994 15.5056 0.901193C15.5329 0.835393 15.5729 0.775617 15.6233 0.725285C15.725 0.623639 15.8629 0.566543 16.0067 0.566543C16.1506 0.566543 16.2885 0.623639 16.3902 0.725285L18.0176 2.35263C18.0933 2.42852 18.1449 2.52517 18.1658 2.63036C18.1866 2.73555 18.1759 2.84456 18.1348 2.94363C18.0938 3.0427 18.0243 3.12739 17.9351 3.18699C17.846 3.24659 17.7412 3.27851 17.6339 3.27858Z" fill="white"/>
</g>
</g>
<defs>
<clipPath id="clip0_10_2563">
<rect width="33" height="33" fill="white"/>
</clipPath>
</defs>
</svg>
