<svg width="28" height="28" viewBox="0 0 28 28" fill="none" xmlns="http://www.w3.org/2000/svg">
<g id="Frame" clip-path="url(#clip0_10_2554)">
<g id="Group">
<path id="Vector" d="M13.5358 14.496C13.6225 14.5828 13.733 14.642 13.8533 14.666C13.9736 14.6899 14.0984 14.6777 14.2117 14.6308C14.3251 14.5838 14.422 14.5043 14.4901 14.4023C14.5583 14.3003 14.5946 14.1803 14.5946 14.0576V4.60781C14.5946 4.26533 14.3168 3.98779 13.9743 3.98779C13.6317 3.98779 13.3542 4.26533 13.3542 4.60788V12.5605L9.95707 9.1634C9.84013 9.05022 9.68339 8.98753 9.52066 8.98886C9.35792 8.99019 9.20223 9.05543 9.08716 9.17051C8.97209 9.28559 8.90686 9.44129 8.90554 9.60402C8.90422 9.76676 8.96691 9.92349 9.0801 10.0404L13.5358 14.496Z" fill="white"/>
<path id="Vector_2" d="M23.8924 4.13969C22.5929 2.83325 21.0472 1.79751 19.3447 1.09243C17.6423 0.387338 15.8169 0.0269005 13.9742 0.0319742C13.6317 0.0319742 13.3541 0.309765 13.3541 0.652311V2.232C13.3541 2.57449 13.6317 2.85202 13.9742 2.85202C14.3168 2.85202 14.5945 2.57449 14.5945 2.232V1.28739C21.152 1.60234 26.4295 6.87974 26.7447 13.4375H25.8C25.4576 13.4375 25.1797 13.7151 25.1797 14.0576C25.1797 14.4001 25.4575 14.6779 25.8 14.6779H26.7447C26.4295 21.2354 21.152 26.5129 14.5945 26.828V25.8834C14.5945 25.5409 14.3167 25.2631 13.9742 25.2631C13.6317 25.2631 13.3541 25.5409 13.3541 25.8834V26.828C6.79644 26.5129 1.51891 21.2354 1.20396 14.6779H2.14864C2.49118 14.6779 2.76872 14.4001 2.76872 14.0576C2.76872 13.715 2.49118 13.4375 2.14864 13.4375H1.20396C1.34886 10.2626 2.67964 7.25767 4.93322 5.01665C5.04626 4.89974 5.10883 4.74309 5.10745 4.58047C5.10607 4.41786 5.04085 4.26229 4.92585 4.14731C4.68649 3.90813 4.29966 3.90467 4.05632 4.13969C-1.37225 9.62559 -1.34913 18.4665 4.10823 23.9238C9.56559 29.3812 18.4065 29.4043 23.8924 23.9757C29.3694 18.498 29.3694 9.61746 23.8924 4.13969Z" fill="white"/>
</g>
</g>
<defs>
<clipPath id="clip0_10_2554">
<rect width="28" height="28" fill="white"/>
</clipPath>
</defs>
</svg>
