<svg width="33" height="33" viewBox="0 0 33 33" fill="none" xmlns="http://www.w3.org/2000/svg">
<g id="Frame">
<g id="Group">
<path id="Vector" d="M29.5099 7.53999C29.3849 6.65499 28.6349 5.98499 27.7199 5.95499C23.7499 5.81999 19.3149 2.85499 17.5949 1.58999C17.2782 1.35498 16.8943 1.22809 16.4999 1.22809C16.1056 1.22809 15.7216 1.35498 15.4049 1.58999C13.6849 2.85999 9.24994 5.81999 5.27994 5.95499C4.36494 5.98499 3.61494 6.65499 3.48994 7.53999C2.86994 11.97 1.92494 26.795 15.8849 31.67C16.0849 31.74 16.2949 31.775 16.4999 31.775C16.7099 31.775 16.9199 31.74 17.1149 31.67C31.0749 26.795 30.1349 11.97 29.5099 7.53999ZM16.7099 30.5C16.5749 30.55 16.4249 30.545 16.2899 30.5C3.21994 25.94 4.12494 11.905 4.71494 7.70999C4.75494 7.41499 5.00494 7.19999 5.32494 7.18999C9.64494 7.03999 14.3299 3.91999 16.1399 2.58499C16.2499 2.50499 16.3749 2.46499 16.5049 2.46499C16.6299 2.46499 16.7599 2.50499 16.8649 2.58499C18.6799 3.91999 23.3649 7.04499 27.6799 7.18999C27.9949 7.19999 28.2449 7.41499 28.2899 7.70999C28.8749 11.905 29.7799 25.94 16.7099 30.5Z" fill="white"/>
<path id="Vector_2" d="M25.25 9.155C22.23 8.495 19.37 6.915 17.5 5.705C17.2014 5.51399 16.8544 5.41248 16.5 5.41248C16.1455 5.41248 15.7985 5.51399 15.5 5.705C13.63 6.915 10.765 8.49 7.74998 9.155C6.94498 9.33 6.34998 10.03 6.30498 10.855C6.03998 15.905 6.91498 24.945 15.775 28.73C16.005 28.83 16.255 28.88 16.5 28.88C16.745 28.88 16.995 28.83 17.225 28.735C26.085 24.945 26.965 15.91 26.7 10.86C26.6767 10.4568 26.5225 10.0721 26.2608 9.76442C25.9991 9.45673 25.6442 9.24277 25.25 9.155ZM16.735 27.595C16.585 27.66 16.41 27.66 16.26 27.595C8.09498 24.1 7.28998 15.65 7.53998 10.92C7.55498 10.65 7.74998 10.42 8.01498 10.365C11.215 9.665 14.215 8.01 16.175 6.745C16.275 6.68 16.39 6.645 16.5 6.645C16.615 6.645 16.725 6.68 16.83 6.745C18.785 8.01 21.79 9.66 24.99 10.365C25.255 10.425 25.45 10.65 25.465 10.92C25.71 15.65 24.905 24.1 16.735 27.595Z" fill="white"/>
<path id="Vector_3" d="M20.1949 14.57L18.6599 14.345C18.6247 14.3401 18.5912 14.3265 18.5624 14.3056C18.5337 14.2847 18.5105 14.257 18.4949 14.225L17.8099 12.835C17.5599 12.335 17.0599 12.02 16.4999 12.02C15.9399 12.02 15.4399 12.33 15.1949 12.835L14.5099 14.225C14.4799 14.29 14.4149 14.335 14.3449 14.345L12.8099 14.57C12.2549 14.65 11.8049 15.03 11.6349 15.565C11.4599 16.095 11.6049 16.67 12.0049 17.06L13.1149 18.145C13.1649 18.195 13.1899 18.27 13.1799 18.34L12.9199 19.87C12.8249 20.42 13.0449 20.965 13.4999 21.295C13.7193 21.4563 13.9799 21.5523 14.2515 21.5717C14.5232 21.5912 14.7948 21.5334 15.0349 21.405L16.4099 20.685C16.4749 20.65 16.5499 20.65 16.6149 20.685L17.9899 21.405C18.4849 21.665 19.0749 21.625 19.5249 21.295C19.9799 20.965 20.1999 20.42 20.1049 19.87L19.8399 18.34C19.8341 18.3047 19.8369 18.2684 19.8483 18.2345C19.8596 18.2005 19.879 18.1698 19.9049 18.145L21.0149 17.06C21.4149 16.67 21.5599 16.1 21.3849 15.565C21.1999 15.03 20.7499 14.65 20.1949 14.57ZM20.1399 16.17L19.0299 17.255C18.6849 17.59 18.5299 18.07 18.6099 18.545L18.8749 20.075C18.8949 20.195 18.8299 20.26 18.7849 20.29C18.7449 20.32 18.6599 20.36 18.5499 20.305L17.1749 19.585C16.7499 19.36 16.2449 19.36 15.8199 19.585L14.4449 20.305C14.3399 20.36 14.2549 20.32 14.2149 20.29C14.1749 20.26 14.1049 20.19 14.1249 20.075L14.3849 18.545C14.425 18.3121 14.4077 18.0728 14.3345 17.8481C14.2613 17.6233 14.1345 17.4197 13.9649 17.255L12.8549 16.17C12.7699 16.085 12.7849 15.995 12.7999 15.945C12.8149 15.895 12.8599 15.81 12.9799 15.795L14.5149 15.57C14.9899 15.5 15.3999 15.205 15.6099 14.77L16.2999 13.38C16.3175 13.3425 16.3454 13.3107 16.3804 13.2884C16.4154 13.2661 16.456 13.2543 16.4974 13.2543C16.5389 13.2543 16.5795 13.2661 16.6145 13.2884C16.6495 13.3107 16.6774 13.3425 16.6949 13.38L17.3799 14.77C17.5949 15.2 18.0049 15.5 18.4799 15.565L20.0149 15.79C20.1349 15.81 20.1799 15.89 20.1949 15.94C20.2149 15.995 20.2249 16.085 20.1399 16.17Z" fill="white"/>
</g>
</g>
</svg>
