<svg width="33" height="33" viewBox="0 0 33 33" fill="none" xmlns="http://www.w3.org/2000/svg">
<g id="Frame">
<g id="Group">
<path id="Vector" d="M19.5473 31.283C18.8499 31.283 18.2267 30.7732 17.6213 30.2782C17.2514 29.9754 16.7444 29.5608 16.4997 29.5608C16.2552 29.5608 15.7482 29.9754 15.3783 30.2782C14.7153 30.8203 13.9631 31.4367 13.135 31.2469C12.2805 31.0527 11.8621 30.1541 11.4929 29.3618C11.3087 28.9654 11.0296 28.3663 10.8312 28.2704C10.6208 28.1676 9.96772 28.3261 9.53562 28.4299C8.69447 28.6323 7.74159 28.8606 7.06784 28.3233C6.39169 27.7833 6.40372 26.7998 6.41506 25.9325C6.42056 25.4901 6.42881 24.8219 6.2865 24.6431C6.14591 24.4671 5.49519 24.3279 5.06447 24.2358C4.21266 24.0536 3.24809 23.847 2.86997 23.0632C2.49734 22.2915 2.93219 21.4163 3.31512 20.6443C3.51416 20.2442 3.81459 19.6388 3.762 19.4068C3.71456 19.1988 3.19687 18.797 2.8545 18.5309C2.16116 17.9933 1.375 17.3828 1.375 16.5C1.375 15.6173 2.16116 15.0071 2.85484 14.4688C3.19722 14.2031 3.71491 13.8012 3.76234 13.5929C3.81494 13.3609 3.5145 12.7556 3.31581 12.3551C2.93253 11.583 2.49803 10.7082 2.871 9.93577C3.24913 9.15237 4.21369 8.94577 5.06516 8.76359C5.49587 8.67146 6.14659 8.53224 6.28684 8.35659C6.42984 8.17749 6.42159 7.5089 6.41609 7.06649C6.40509 6.19921 6.39306 5.21609 7.06887 4.67605C7.74228 4.13843 8.69584 4.36737 9.53666 4.56949C9.96944 4.67331 10.6219 4.8304 10.8319 4.72934C11.0306 4.63343 11.3094 4.03462 11.494 3.63793C11.8628 2.84524 12.2808 1.94702 13.1354 1.7528C13.9624 1.56512 14.7159 2.17905 15.3787 2.72149C15.7489 3.02434 16.2559 3.4389 16.5003 3.4389C16.7448 3.4389 17.2518 3.02434 17.6217 2.72184C18.2851 2.17905 19.0369 1.56374 19.8653 1.7528C20.7195 1.94702 21.1379 2.84559 21.5071 3.63827C21.6917 4.03462 21.9704 4.63377 22.1691 4.72968C22.3798 4.83109 23.0319 4.67365 23.464 4.56984C24.3052 4.36771 25.2584 4.13877 25.9322 4.6764C26.6083 5.21643 26.5963 6.19955 26.5849 7.06718C26.5794 7.50959 26.5712 8.17818 26.7135 8.35659C26.8541 8.53224 27.5048 8.67181 27.9355 8.76393C28.7873 8.94612 29.7519 9.15237 30.13 9.93612C30.5027 10.7082 30.0678 11.5834 29.6849 12.3554C29.4858 12.7559 29.1854 13.3609 29.238 13.5929C29.2854 13.8012 29.8031 14.2031 30.1455 14.4688C30.8388 15.0071 31.625 15.6173 31.625 16.5C31.625 17.3828 30.8388 17.9929 30.1452 18.5312C29.8028 18.797 29.2851 19.1985 29.2377 19.4075C29.1851 19.6395 29.4855 20.2445 29.6842 20.645C30.0675 21.417 30.502 22.2919 30.129 23.0643C29.7509 23.8477 28.7863 24.0543 27.9348 24.2361C27.5041 24.3286 26.8534 24.4678 26.7128 24.6435C26.5702 24.8226 26.5784 25.4912 26.5839 25.9336C26.5949 26.8005 26.6069 27.7836 25.9311 28.3237C25.2577 28.8613 24.3042 28.632 23.4633 28.4302C23.0306 28.3264 22.3781 28.1686 22.1681 28.2707C21.9694 28.3663 21.6906 28.9654 21.506 29.3618C21.1372 30.1548 20.7192 31.053 19.8646 31.2472C19.7574 31.2717 19.6515 31.283 19.5473 31.283ZM10.6184 26.8641C10.9034 26.8641 11.1767 26.9102 11.4287 27.0315C12.0691 27.3402 12.4101 28.0727 12.7397 28.7812C12.903 29.1318 13.2426 29.8612 13.4396 29.9059C13.6228 29.9382 14.2209 29.4477 14.5076 29.2133C15.1257 28.708 15.7644 28.1855 16.4997 28.1855C17.2349 28.1855 17.874 28.7083 18.4917 29.2133C18.7784 29.4477 19.3586 29.9286 19.5604 29.9059C19.7567 29.8609 20.0967 29.1318 20.2596 28.7812C20.5889 28.0727 20.9299 27.3409 21.5707 27.0315C22.2224 26.717 23.0158 26.9084 23.7841 27.093C24.1536 27.1817 24.9239 27.367 25.0724 27.2487C25.2233 27.1284 25.2134 26.3326 25.2086 25.9504C25.1986 25.1625 25.1883 24.3482 25.6379 23.7851C26.0848 23.2255 26.8785 23.0557 27.6464 22.8914C28.0225 22.8109 28.8045 22.6435 28.8901 22.4665C28.9699 22.3005 28.6199 21.5951 28.4518 21.2561C28.0995 20.5463 27.7348 19.8121 27.8963 19.1026C28.0527 18.4144 28.6877 17.9214 29.3012 17.445C29.6333 17.1879 30.25 16.7094 30.25 16.5C30.25 16.2907 29.6333 15.8122 29.3019 15.5547C28.688 15.0783 28.0531 14.5857 27.8967 13.8971C27.7355 13.1876 28.1002 12.4534 28.4525 11.7436C28.6206 11.4046 28.9709 10.6996 28.8908 10.5332C28.8052 10.3558 28.0232 10.1888 27.6475 10.1083C26.8795 9.94402 26.0855 9.77421 25.6386 9.21493C25.1893 8.65221 25.1996 7.83752 25.2096 7.04999C25.2144 6.66774 25.2244 5.87162 25.0735 5.75131C24.9257 5.63306 24.155 5.81834 23.7847 5.90702C23.0168 6.09162 22.2234 6.28274 21.5713 5.96821C20.9309 5.65918 20.5899 4.92699 20.2603 4.21887C20.097 3.86824 19.7577 3.1388 19.5604 3.09412C19.3713 3.06146 18.7787 3.55234 18.492 3.78643C17.8743 4.29209 17.2356 4.81459 16.5003 4.81459C15.7651 4.81459 15.1264 4.29174 14.5083 3.78643C14.2216 3.55199 13.6235 3.06352 13.4396 3.09377C13.243 3.13846 12.903 3.8679 12.7401 4.21852C12.4104 4.92665 12.0697 5.65884 11.4293 5.96787C10.7776 6.28205 9.98422 6.09162 9.21559 5.90668C8.84606 5.81765 8.07503 5.63271 7.92722 5.75062C7.77631 5.87127 7.78628 6.66706 7.79109 7.0493C7.80106 7.83718 7.81138 8.65187 7.36175 9.21424C6.91488 9.77387 6.12116 9.94368 5.35322 10.108C4.97716 10.1884 4.19512 10.3558 4.10953 10.5329C4.02978 10.6989 4.37972 11.4043 4.54781 11.7432C4.90016 12.4531 5.26487 13.1873 5.10331 13.8968C4.94691 14.585 4.312 15.0779 3.69841 15.5544C3.36669 15.8122 2.75 16.2907 2.75 16.5C2.75 16.7094 3.36669 17.1882 3.69806 17.4453C4.312 17.9218 4.94691 18.414 5.10331 19.1026C5.26453 19.8121 4.89981 20.546 4.54747 21.2561C4.37937 21.5951 4.02909 22.3001 4.10919 22.4665C4.19478 22.6442 4.97681 22.8113 5.35287 22.8917C6.12047 23.056 6.91453 23.2258 7.36141 23.7855C7.81069 24.3482 7.80037 25.1625 7.79041 25.9504C7.78559 26.3326 7.77563 27.1288 7.92653 27.2491C8.07434 27.3656 8.84503 27.1821 9.21525 27.093C9.68584 26.9796 10.1667 26.8641 10.6184 26.8641ZM12.1736 21.7986L21.7986 12.1736C21.8642 12.1102 21.9166 12.0343 21.9526 11.9504C21.9887 11.8665 22.0076 11.7763 22.0084 11.6851C22.0092 11.5938 21.9918 11.5032 21.9573 11.4187C21.9227 11.3343 21.8716 11.2575 21.8071 11.1929C21.7425 11.1284 21.6658 11.0773 21.5813 11.0428C21.4968 11.0082 21.4063 10.9908 21.315 10.9916C21.2237 10.9924 21.1335 11.0114 21.0496 11.0474C20.9657 11.0834 20.8899 11.1358 20.8264 11.2015L11.2014 20.8265C11.1358 20.8899 11.0834 20.9657 11.0474 21.0496C11.0113 21.1335 10.9924 21.2237 10.9916 21.315C10.9908 21.4063 11.0082 21.4968 11.0427 21.5813C11.0773 21.6658 11.1284 21.7426 11.1929 21.8071C11.2575 21.8717 11.3342 21.9227 11.4187 21.9573C11.5032 21.9918 11.5937 22.0092 11.685 22.0084C11.7763 22.0077 11.8665 21.9887 11.9504 21.9527C12.0343 21.9166 12.1101 21.8643 12.1736 21.7986ZM13.0625 15.4688C11.736 15.4688 10.6562 14.3894 10.6562 13.0625C10.6562 11.7356 11.736 10.6563 13.0625 10.6563C14.389 10.6563 15.4688 11.7356 15.4688 13.0625C15.4688 14.3894 14.389 15.4688 13.0625 15.4688ZM13.0625 12.0313C12.4939 12.0313 12.0312 12.494 12.0312 13.0625C12.0312 13.6311 12.4939 14.0938 13.0625 14.0938C13.6311 14.0938 14.0938 13.6311 14.0938 13.0625C14.0938 12.494 13.6311 12.0313 13.0625 12.0313ZM19.9375 22.3438C18.611 22.3438 17.5312 21.2641 17.5312 19.9375C17.5312 18.611 18.611 17.5313 19.9375 17.5313C21.264 17.5313 22.3438 18.611 22.3438 19.9375C22.3438 21.2641 21.264 22.3438 19.9375 22.3438ZM19.9375 18.9063C19.3689 18.9063 18.9062 19.369 18.9062 19.9375C18.9062 20.5061 19.3689 20.9688 19.9375 20.9688C20.5061 20.9688 20.9688 20.5061 20.9688 19.9375C20.9688 19.369 20.5061 18.9063 19.9375 18.9063Z" fill="white"/>
</g>
</g>
</svg>
