<svg 
 xmlns="http://www.w3.org/2000/svg"
 xmlns:xlink="http://www.w3.org/1999/xlink"
 width="18px" height="20px">
<path fill-rule="evenodd"  fill="rgb(0, 49, 96)"
 d="M5.245,12.833 L15.379,12.833 C16.529,12.833 17.466,11.896 17.466,10.748 L17.466,6.487 C17.466,6.484 17.466,6.476 17.466,6.472 C17.466,6.461 17.466,6.454 17.466,6.442 C17.466,6.435 17.466,6.427 17.462,6.420 C17.462,6.412 17.458,6.401 17.458,6.393 C17.458,6.386 17.455,6.378 17.455,6.371 C17.451,6.363 17.451,6.355 17.447,6.344 C17.443,6.337 17.443,6.329 17.440,6.321 C17.436,6.314 17.436,6.306 17.432,6.299 C17.428,6.291 17.424,6.284 17.421,6.272 C17.417,6.265 17.413,6.257 17.409,6.253 C17.406,6.246 17.402,6.238 17.398,6.231 C17.394,6.223 17.390,6.219 17.387,6.212 C17.383,6.204 17.375,6.197 17.371,6.189 C17.368,6.182 17.364,6.178 17.356,6.170 C17.353,6.163 17.345,6.159 17.341,6.152 C17.337,6.144 17.330,6.140 17.326,6.132 C17.322,6.125 17.315,6.121 17.311,6.117 C17.303,6.110 17.300,6.106 17.292,6.099 C17.285,6.095 17.281,6.087 17.273,6.083 C17.266,6.080 17.258,6.072 17.250,6.068 C17.243,6.065 17.239,6.061 17.232,6.057 C17.224,6.053 17.217,6.049 17.209,6.042 C17.201,6.038 17.194,6.034 17.186,6.030 C17.179,6.027 17.171,6.023 17.164,6.019 C17.156,6.015 17.149,6.012 17.141,6.008 C17.133,6.004 17.126,6.004 17.118,6.000 C17.111,5.996 17.099,5.993 17.092,5.993 C17.084,5.993 17.077,5.989 17.073,5.989 C17.062,5.985 17.054,5.985 17.043,5.985 C17.039,5.985 17.035,5.981 17.028,5.981 L4.183,4.210 L4.183,2.420 C4.183,2.401 4.183,2.382 4.179,2.367 C4.179,2.363 4.179,2.359 4.175,2.352 C4.175,2.341 4.172,2.329 4.172,2.318 C4.168,2.306 4.168,2.299 4.164,2.288 C4.164,2.280 4.160,2.276 4.160,2.269 C4.157,2.257 4.153,2.246 4.149,2.235 C4.149,2.231 4.145,2.223 4.145,2.220 C4.142,2.208 4.138,2.201 4.130,2.189 C4.126,2.186 4.126,2.178 4.123,2.174 C4.119,2.167 4.115,2.159 4.108,2.152 C4.104,2.144 4.100,2.140 4.096,2.133 C4.092,2.125 4.089,2.121 4.085,2.114 C4.081,2.106 4.074,2.099 4.070,2.091 C4.066,2.087 4.062,2.084 4.058,2.080 C4.051,2.072 4.043,2.065 4.036,2.057 C4.032,2.054 4.028,2.050 4.024,2.046 C4.017,2.038 4.009,2.031 3.998,2.023 C3.994,2.019 3.987,2.016 3.983,2.012 C3.975,2.004 3.968,2.001 3.960,1.993 C3.949,1.986 3.937,1.978 3.930,1.974 C3.926,1.971 3.922,1.971 3.918,1.967 C3.903,1.959 3.884,1.951 3.869,1.944 L1.083,0.773 C0.823,0.664 0.524,0.784 0.414,1.045 C0.305,1.306 0.426,1.604 0.687,1.714 L3.159,2.756 L3.159,5.067 L3.159,5.434 L3.159,8.244 L3.159,10.755 L3.159,13.928 C3.159,14.986 3.953,15.862 4.977,15.994 C4.792,16.304 4.682,16.666 4.682,17.052 C4.682,18.188 5.608,19.110 6.742,19.110 C7.876,19.110 8.802,18.185 8.802,17.052 C8.802,16.674 8.700,16.315 8.519,16.013 L13.108,16.013 C12.926,16.319 12.824,16.674 12.824,17.052 C12.824,18.188 13.750,19.110 14.884,19.110 C16.018,19.110 16.944,18.185 16.944,17.052 C16.944,15.918 16.018,14.993 14.884,14.993 L5.245,14.993 C4.656,14.993 4.179,14.514 4.179,13.928 L4.179,12.546 C4.489,12.727 4.856,12.833 5.245,12.833 ZM7.785,17.048 C7.785,17.622 7.317,18.086 6.746,18.086 C6.175,18.086 5.706,17.618 5.706,17.048 C5.706,16.478 6.175,16.009 6.746,16.009 C7.317,16.009 7.785,16.474 7.785,17.048 ZM15.928,17.048 C15.928,17.622 15.459,18.086 14.888,18.086 C14.317,18.086 13.849,17.618 13.849,17.048 C13.849,16.478 14.317,16.009 14.888,16.009 C15.459,16.009 15.928,16.474 15.928,17.048 ZM15.379,11.813 L5.245,11.813 C4.656,11.813 4.179,11.333 4.179,10.748 L4.179,8.236 L4.179,5.426 L4.179,5.237 L16.445,6.926 L16.445,10.744 C16.445,11.337 15.965,11.813 15.379,11.813 Z"/>
</svg>