<svg 
 xmlns="http://www.w3.org/2000/svg"
 xmlns:xlink="http://www.w3.org/1999/xlink"
 width="19px" height="22px">
<path fill-rule="evenodd"  fill="rgb(255, 255, 255)"
 d="M14.000,2.000 C11.000,2.000 8.000,-0.000 5.000,-0.000 C2.000,-0.000 -0.000,1.000 -0.000,1.000 L-0.000,13.000 L-0.000,15.000 L-0.000,21.000 C-0.000,21.552 0.448,22.000 1.000,22.000 C1.552,22.000 2.000,21.552 2.000,21.000 L2.000,14.339 C2.807,14.153 3.827,14.000 5.000,14.000 C8.000,14.000 11.000,16.000 14.000,16.000 C17.000,16.000 19.000,15.000 19.000,15.000 L19.000,1.000 C19.000,1.000 17.000,2.000 14.000,2.000 ZM17.000,13.598 C16.025,13.869 15.011,14.000 14.000,14.000 C12.538,14.000 11.111,13.426 9.743,12.973 C8.208,12.465 6.632,12.000 5.000,12.000 C3.994,12.000 2.987,12.098 2.000,12.293 L2.000,2.402 C2.974,2.131 3.989,2.000 5.000,2.000 C6.462,2.000 7.889,2.574 9.256,3.026 C10.792,3.534 12.368,4.000 14.000,4.000 C15.006,4.000 16.013,3.902 17.000,3.706 L17.000,13.598 Z"/>
</svg>