<svg 
 xmlns="http://www.w3.org/2000/svg"
 xmlns:xlink="http://www.w3.org/1999/xlink"
 width="63px" height="70px">
<path fill-rule="evenodd"  stroke-width="1px" stroke="rgb(255, 255, 255)" fill="rgb(255, 255, 255)"
 d="M52.471,23.889 C52.046,27.004 51.178,32.829 50.136,36.846 C48.238,44.169 46.402,46.957 45.477,47.967 C42.436,51.287 36.794,55.724 33.701,58.073 C33.087,58.539 32.352,58.772 31.616,58.772 C30.881,58.772 30.146,58.539 29.532,58.073 C26.439,55.724 20.796,51.287 17.755,47.967 C16.830,46.957 14.995,44.169 13.097,36.846 C12.055,32.830 11.187,27.004 10.763,23.889 C10.510,22.036 11.745,20.309 13.573,19.956 C19.574,18.797 24.953,16.189 29.561,12.205 C30.733,11.191 32.500,11.191 33.672,12.205 C38.279,16.189 43.659,18.797 49.660,19.956 C51.488,20.309 52.723,22.036 52.471,23.889 ZM32.479,13.581 C32.234,13.368 31.925,13.262 31.616,13.262 C31.308,13.262 30.999,13.368 30.753,13.581 C25.901,17.777 20.237,20.523 13.918,21.743 C13.039,21.913 12.445,22.747 12.568,23.643 C12.987,26.719 13.842,32.464 14.860,36.390 C16.779,43.792 18.590,46.181 19.099,46.738 C22.154,50.072 28.183,54.762 30.634,56.623 C31.213,57.063 32.020,57.063 32.598,56.623 C35.049,54.762 41.079,50.073 44.134,46.738 C44.643,46.181 46.454,43.792 48.373,36.390 C49.391,32.463 50.246,26.718 50.666,23.643 C50.787,22.747 50.194,21.913 49.314,21.743 C42.996,20.523 37.332,17.777 32.479,13.581 ZM33.944,42.777 C33.321,43.395 32.494,43.735 31.616,43.735 C30.858,43.735 30.117,43.471 29.529,42.993 L28.016,41.763 C27.625,41.445 27.566,40.872 27.884,40.482 C28.201,40.092 28.775,40.034 29.166,40.351 L30.679,41.581 C31.076,41.908 31.907,42.211 32.662,41.484 L42.195,32.046 C42.777,31.470 42.782,30.528 42.205,29.947 C41.628,29.365 40.686,29.361 40.104,29.937 L32.100,37.860 C31.770,38.188 31.245,38.214 30.884,37.920 L25.415,33.473 C25.107,33.222 24.090,32.664 23.325,33.687 C22.560,34.711 23.232,35.525 23.539,35.776 L26.181,37.924 C26.571,38.241 26.630,38.814 26.312,39.204 C25.995,39.594 25.421,39.653 25.031,39.336 L22.389,37.188 C21.704,36.631 20.256,34.724 21.912,32.538 C23.567,30.353 25.880,31.504 26.565,32.061 L31.399,35.992 L38.822,28.644 C40.117,27.362 42.216,27.371 43.499,28.666 C44.783,29.960 44.773,32.057 43.477,33.340 L33.944,42.777 ZM59.269,22.323 C58.421,29.276 55.839,46.113 50.192,52.278 C45.663,57.223 40.012,61.588 36.069,64.378 C34.738,65.320 33.177,65.791 31.616,65.792 C30.056,65.792 28.495,65.320 27.164,64.378 C23.221,61.588 17.569,57.223 13.041,52.278 C7.395,46.113 4.812,29.276 3.964,22.323 C3.466,18.244 6.363,14.507 10.421,13.994 C18.726,12.945 24.229,8.777 27.383,5.466 C28.496,4.298 29.999,3.654 31.616,3.654 C33.234,3.654 34.737,4.298 35.850,5.466 C38.123,7.852 40.749,9.798 43.655,11.248 C44.105,11.472 44.287,12.019 44.063,12.469 C43.838,12.919 43.291,13.101 42.841,12.877 C39.745,11.332 36.949,9.261 34.530,6.720 C33.765,5.917 32.730,5.475 31.616,5.475 C30.503,5.475 29.468,5.917 28.703,6.720 C25.345,10.246 19.487,14.683 10.650,15.800 C7.584,16.188 5.396,19.016 5.772,22.103 C6.267,26.151 7.171,32.194 8.674,37.991 C10.310,44.306 12.232,48.698 14.385,51.049 C18.805,55.876 24.346,60.154 28.217,62.892 C30.250,64.332 32.983,64.332 35.016,62.892 C38.887,60.154 44.428,55.876 48.849,51.049 C51.001,48.698 52.922,44.306 54.560,37.991 C56.062,32.194 56.967,26.151 57.461,22.103 C57.837,19.016 55.649,16.188 52.584,15.800 C50.539,15.542 48.541,15.089 46.642,14.453 C46.166,14.293 45.909,13.777 46.068,13.300 C46.228,12.824 46.744,12.567 47.222,12.726 C49.006,13.324 50.887,13.751 52.812,13.994 C56.870,14.507 59.767,18.244 59.269,22.323 Z"/>
</svg>