<svg 
 xmlns="http://www.w3.org/2000/svg"
 xmlns:xlink="http://www.w3.org/1999/xlink"
 width="60px" height="60px">
<path fill-rule="evenodd"  fill="rgb(255, 255, 255)"
 d="M58.235,30.104 C58.235,31.132 58.544,32.258 58.873,33.450 C59.396,35.348 59.937,37.309 59.291,39.219 C58.620,41.202 56.951,42.497 55.336,43.750 C54.369,44.500 53.454,45.211 52.861,45.992 C52.260,46.785 51.834,47.848 51.383,48.971 C50.640,50.821 49.873,52.736 48.151,53.939 C46.462,55.119 44.355,55.232 42.317,55.341 C41.046,55.409 39.844,55.474 38.838,55.787 C37.895,56.081 36.924,56.689 35.894,57.331 C34.233,58.368 32.351,59.544 30.175,59.544 C27.999,59.544 26.118,58.368 24.459,57.332 C23.430,56.690 22.457,56.082 21.515,55.789 C20.509,55.475 19.307,55.410 18.036,55.342 C16.000,55.233 13.891,55.120 12.202,53.940 C10.483,52.737 9.714,50.825 8.971,48.977 C8.520,47.850 8.093,46.788 7.488,45.992 C6.896,45.211 5.982,44.500 5.014,43.750 C3.401,42.498 1.732,41.202 1.062,39.220 C0.416,37.311 0.956,35.348 1.478,33.451 C1.806,32.260 2.116,31.133 2.116,30.105 C2.116,29.078 1.806,27.952 1.478,26.761 C0.956,24.863 0.416,22.902 1.062,20.993 C1.732,19.012 3.399,17.718 5.013,16.465 C5.981,15.712 6.895,15.003 7.488,14.219 C8.092,13.423 8.519,12.359 8.971,11.235 C9.714,9.386 10.481,7.475 12.200,6.274 C13.891,5.092 15.998,4.979 18.036,4.869 C19.307,4.801 20.509,4.736 21.517,4.422 C22.459,4.130 23.431,3.521 24.461,2.877 C26.120,1.839 28.000,0.664 30.175,0.664 C32.350,0.664 34.231,1.839 35.889,2.876 C36.920,3.520 37.894,4.128 38.835,4.421 C39.841,4.735 41.043,4.800 42.314,4.868 C44.351,4.976 46.461,5.090 48.151,6.273 C49.869,7.474 50.636,9.386 51.379,11.235 C51.829,12.359 52.256,13.422 52.860,14.218 C53.453,14.999 54.367,15.708 55.335,16.460 C56.950,17.711 58.620,19.008 59.290,20.992 C59.936,22.899 59.396,24.861 58.873,26.758 C58.544,27.950 58.235,29.076 58.235,30.104 ZM56.408,26.078 C56.846,24.484 57.263,22.977 56.868,21.814 C56.445,20.559 55.144,19.550 53.769,18.482 C52.714,17.663 51.622,16.815 50.825,15.766 C50.012,14.696 49.502,13.422 49.006,12.188 C48.377,10.620 47.781,9.138 46.687,8.372 C45.595,7.609 43.935,7.518 42.177,7.425 C40.805,7.351 39.386,7.275 38.076,6.867 C36.819,6.475 35.659,5.751 34.536,5.048 C33.035,4.110 31.617,3.224 30.175,3.224 C28.733,3.224 27.316,4.110 25.816,5.046 C24.694,5.747 23.533,6.473 22.276,6.865 C20.966,7.274 19.545,7.350 18.174,7.424 C16.416,7.517 14.755,7.606 13.664,8.370 C12.570,9.133 11.975,10.615 11.346,12.185 C10.849,13.418 10.338,14.693 9.525,15.763 C8.730,16.814 7.636,17.663 6.580,18.483 C5.206,19.550 3.908,20.558 3.485,21.810 C3.090,22.976 3.504,24.482 3.944,26.077 C4.302,27.382 4.673,28.727 4.673,30.103 C4.673,31.479 4.302,32.825 3.944,34.130 C3.505,35.725 3.090,37.232 3.485,38.399 C3.908,39.650 5.207,40.658 6.581,41.725 C7.638,42.546 8.730,43.393 9.526,44.443 C10.337,45.513 10.849,46.786 11.344,48.019 C11.975,49.590 12.572,51.073 13.666,51.839 C14.757,52.600 16.416,52.690 18.173,52.783 C19.545,52.856 20.966,52.933 22.277,53.341 C23.533,53.734 24.693,54.459 25.813,55.159 C27.315,56.098 28.732,56.984 30.175,56.984 C31.619,56.984 33.037,56.098 34.539,55.159 C35.660,54.457 36.821,53.734 38.076,53.341 C39.387,52.932 40.808,52.856 42.180,52.783 C43.936,52.690 45.595,52.601 46.687,51.839 C47.782,51.073 48.378,49.590 49.009,48.018 C49.503,46.785 50.015,45.513 50.824,44.443 C51.622,43.393 52.714,42.546 53.769,41.727 C55.144,40.659 56.445,39.650 56.868,38.399 C57.263,37.232 56.848,35.726 56.408,34.131 C56.047,32.828 55.678,31.481 55.678,30.105 C55.678,28.730 56.048,27.383 56.408,26.078 ZM30.175,49.304 C19.600,49.304 10.997,40.691 10.997,30.104 C10.997,19.517 19.600,10.904 30.175,10.904 C40.750,10.904 49.354,19.517 49.354,30.104 C49.354,40.691 40.750,49.304 30.175,49.304 ZM43.871,20.697 L31.217,38.525 C31.000,38.833 30.657,39.028 30.283,39.059 C30.247,39.063 30.210,39.064 30.175,39.064 C29.838,39.064 29.512,38.931 29.271,38.689 L21.600,31.009 C21.100,30.508 21.100,29.700 21.600,29.199 C22.100,28.699 22.908,28.699 23.408,29.199 L30.009,35.808 L42.194,18.642 C39.164,15.460 34.902,13.464 30.175,13.464 C21.010,13.464 13.554,20.929 13.554,30.104 C13.554,39.279 21.010,46.744 30.175,46.744 C39.340,46.744 46.797,39.279 46.797,30.104 C46.797,26.613 45.713,23.375 43.871,20.697 Z"/>
</svg>