<svg 
 xmlns="http://www.w3.org/2000/svg"
 xmlns:xlink="http://www.w3.org/1999/xlink"
 width="11px" height="17px">
<path fill-rule="evenodd"  fill="rgb(0, 53, 105)"
 d="M8.470,16.025 L2.469,16.025 C1.400,16.025 0.530,15.166 0.530,14.110 L0.530,2.890 C0.530,1.834 1.400,0.975 2.469,0.975 L8.470,0.975 C9.540,0.975 10.410,1.834 10.410,2.890 L10.410,14.110 C10.410,15.166 9.540,16.025 8.470,16.025 ZM9.104,2.890 C9.104,2.545 8.820,2.265 8.470,2.265 L2.469,2.265 C2.120,2.265 1.836,2.545 1.836,2.890 L1.836,14.110 C1.836,14.455 2.120,14.735 2.469,14.735 L8.470,14.735 C8.820,14.735 9.104,14.455 9.104,14.110 L9.104,2.890 ZM6.507,4.310 L4.471,4.310 C4.170,4.310 3.926,4.069 3.926,3.772 C3.926,3.476 4.170,3.235 4.471,3.235 L6.507,3.235 C6.808,3.235 7.051,3.476 7.051,3.772 C7.051,4.069 6.808,4.310 6.507,4.310 ZM5.470,12.201 C5.944,12.201 6.327,12.580 6.327,13.048 C6.327,13.515 5.944,13.894 5.470,13.894 C4.997,13.894 4.613,13.515 4.613,13.048 C4.613,12.580 4.997,12.201 5.470,12.201 Z"/>
</svg>