<svg 
 xmlns="http://www.w3.org/2000/svg"
 xmlns:xlink="http://www.w3.org/1999/xlink"
 width="100px" height="81px">
<path fill-rule="evenodd"  fill="rgb(255, 255, 255)"
 d="M97.414,61.873 C94.548,71.454 88.650,77.935 80.806,80.117 C78.831,80.667 76.797,80.947 74.761,80.947 C64.762,80.947 55.897,74.247 53.201,64.657 C49.876,52.822 56.845,40.499 68.741,37.187 C74.014,35.726 79.837,36.282 84.718,38.685 C84.561,38.031 84.398,37.403 84.226,36.789 C79.878,21.320 71.348,14.360 66.681,14.360 L66.475,14.363 C65.578,14.404 64.715,13.802 64.465,12.912 L61.875,3.691 C61.722,3.150 61.807,2.571 62.108,2.094 C62.410,1.621 62.898,1.295 63.455,1.197 C64.439,1.024 65.449,0.936 66.460,0.936 C79.045,0.936 91.992,14.494 97.240,33.170 C99.935,42.767 100.000,53.228 97.414,61.873 ZM28.932,80.117 C26.957,80.667 24.923,80.947 22.887,80.947 C12.888,80.947 4.023,74.247 1.327,64.657 C-2.000,52.822 4.971,40.499 16.865,37.187 C22.138,35.726 27.959,36.282 32.842,38.685 C32.686,38.035 32.523,37.407 32.350,36.789 C28.002,21.320 19.471,14.360 14.804,14.360 L14.600,14.363 C13.687,14.404 12.840,13.802 12.590,12.912 L9.999,3.691 C9.847,3.150 9.932,2.571 10.233,2.094 C10.534,1.621 11.023,1.292 11.579,1.197 C12.562,1.024 13.573,0.938 14.582,0.938 C27.170,0.938 40.114,14.494 45.366,33.168 C48.062,42.766 48.126,53.228 45.541,61.873 C42.674,71.454 36.776,77.935 28.932,80.117 Z"/>
</svg>