<svg 
 xmlns="http://www.w3.org/2000/svg"
 xmlns:xlink="http://www.w3.org/1999/xlink"
 width="14px" height="14px">
<path fill-rule="evenodd"  fill="rgb(0, 53, 105)"
 d="M7.000,0.400 C3.355,0.400 0.400,3.355 0.400,7.000 C0.400,10.645 3.355,13.600 7.000,13.600 C10.645,13.600 13.600,10.645 13.600,7.000 C13.600,3.355 10.645,0.400 7.000,0.400 ZM7.000,12.400 C4.018,12.400 1.600,9.982 1.600,7.000 C1.600,4.018 4.018,1.600 7.000,1.600 C9.982,1.600 12.400,4.018 12.400,7.000 C12.400,9.982 9.982,12.400 7.000,12.400 ZM9.224,8.376 C9.459,8.610 9.459,8.990 9.224,9.224 C9.107,9.341 8.953,9.400 8.800,9.400 C8.646,9.400 8.493,9.341 8.376,9.224 L6.576,7.424 C6.463,7.312 6.400,7.159 6.400,7.000 L6.400,3.400 C6.400,3.069 6.669,2.800 7.000,2.800 C7.331,2.800 7.600,3.069 7.600,3.400 L7.600,6.752 L9.224,8.376 Z"/>
</svg>